<?xml version="1.0" standalone="no"?>
<!DOCTYPE svg PUBLIC "-//W3C//DTD SVG 20010904//EN"
 "http://www.w3.org/TR/2001/REC-SVG-20010904/DTD/svg10.dtd">
<svg version="1.0" xmlns="http://www.w3.org/2000/svg"
 width="299.000000pt" height="169.000000pt" viewBox="0 0 299.000000 169.000000"
 preserveAspectRatio="xMidYMid meet">

<g transform="translate(0.000000,169.000000) scale(0.100000,-0.100000)"
fill="#000000" stroke="none">
<path d="M1283 1218 c-367 -368 -366 -367 -367 -508 -1 -129 21 -168 195 -345
77 -79 154 -149 169 -155 50 -21 110 27 110 87 0 8 -67 84 -149 168 -172 176
-185 199 -160 290 9 33 61 90 314 345 166 168 308 315 315 328 26 52 -14 112
-75 112 -27 0 -70 -40 -352 -322z"/>
</g>
</svg>
